<svg width="28" height="32" viewBox="0 0 28 32" fill="none" xmlns="http://www.w3.org/2000/svg">
<g id="Logomark">
<path id="Shape" fill-rule="evenodd" clip-rule="evenodd" d="M14.3749 1.05275C14.0076 0.977208 13.6288 0.977208 13.2615 1.05275C12.8369 1.14007 12.4574 1.35263 12.1557 1.52161L12.0735 1.56755L1.84839 7.24815C1.82012 7.26385 1.79099 7.2799 1.76114 7.29634C1.44177 7.47225 1.04021 7.69343 0.731832 8.02806C0.465218 8.31737 0.263452 8.66028 0.140026 9.03384C-0.00273444 9.46592 -0.00106418 9.92436 0.000264115 10.289C0.000388283 10.323 0.000509397 10.3563 0.000509397 10.3886V21.6046C0.000509397 21.6369 0.000388283 21.6702 0.000264115 21.7043C-0.00106418 22.0689 -0.00273444 22.5273 0.140026 22.9594C0.263453 23.333 0.46522 23.6759 0.731832 23.9652C1.04021 24.2998 1.44177 24.521 1.76114 24.6969C1.79099 24.7133 1.82012 24.7294 1.84839 24.7451L12.0735 30.4257L12.1557 30.4716C12.4574 30.6406 12.8369 30.8532 13.2615 30.9405C13.6288 31.016 14.0076 31.016 14.3749 30.9405C14.7995 30.8532 15.179 30.6406 15.4807 30.4716L15.5629 30.4257L25.788 24.7451C25.8005 24.7381 25.8131 24.7311 25.826 24.7241C25.8421 24.7151 25.8586 24.7061 25.8752 24.6969C26.1946 24.521 26.5962 24.2998 26.9045 23.9652C27.1711 23.6759 27.3729 23.333 27.4963 22.9594C27.6391 22.5273 27.6374 22.0689 27.6361 21.7043C27.636 21.6702 27.6359 21.6369 27.6359 21.6046V10.3886C27.6359 10.3563 27.636 10.3231 27.6361 10.289C27.6374 9.92436 27.6391 9.46592 27.4963 9.03384C27.3729 8.66028 27.1711 8.31737 26.9045 8.02805C26.5962 7.69342 26.1946 7.47224 25.8752 7.29633L25.8741 7.29571C25.8446 7.27949 25.8159 7.26365 25.788 7.24814L15.5629 1.56755L15.4807 1.5216C15.179 1.35262 14.7995 1.14007 14.3749 1.05275ZM13.4156 3.98331C13.625 3.86698 13.7318 3.8082 13.8116 3.76974L13.8182 3.76658L13.8248 3.76974C13.9045 3.8082 14.0114 3.86698 14.2208 3.98331L23.4088 9.08775L13.8181 14.4159L4.22753 9.08777L13.4156 3.98331ZM2.76404 11.4361L12.4364 16.8096L12.4364 27.4659L3.19048 22.3293C2.96946 22.2065 2.85662 22.1432 2.77745 22.0927L2.77076 22.0885L2.77026 22.0805C2.76462 21.9868 2.76404 21.8574 2.76404 21.6046V11.4361Z" fill="#2C2C2C"/>
</g>
</svg>
