<svg width="14" height="14" viewBox="0 0 14 14" fill="none" xmlns="http://www.w3.org/2000/svg">
<path fill-rule="evenodd" clip-rule="evenodd" d="M8.1665 1.74999C8.1665 1.42782 8.42767 1.16666 8.74984 1.16666H12.2498C12.572 1.16666 12.8332 1.42782 12.8332 1.74999L12.8332 5.24999C12.8332 5.57216 12.572 5.83332 12.2498 5.83332C11.9277 5.83332 11.6665 5.57216 11.6665 5.24999L11.6665 3.15828L7.99565 6.82914C7.76784 7.05694 7.3985 7.05694 7.17069 6.82914C6.94289 6.60133 6.94289 6.23198 7.17069 6.00418L10.8415 2.33332H8.74984C8.42767 2.33332 8.1665 2.07216 8.1665 1.74999ZM4.52575 2.33332L5.83317 2.33332C6.15534 2.33332 6.4165 2.59449 6.4165 2.91666C6.4165 3.23882 6.15534 3.49999 5.83317 3.49999H4.54984C4.05017 3.49999 3.7105 3.50044 3.44794 3.52189C3.1922 3.54279 3.06142 3.58066 2.97018 3.62715C2.75066 3.739 2.57218 3.91748 2.46033 4.137C2.41384 4.22823 2.37597 4.35902 2.35508 4.61476C2.33362 4.87731 2.33317 5.21699 2.33317 5.71666V9.44999C2.33317 9.94966 2.33362 10.2893 2.35508 10.5519C2.37597 10.8076 2.41384 10.9384 2.46033 11.0296C2.57218 11.2492 2.75066 11.4276 2.97018 11.5395C3.06142 11.586 3.1922 11.6239 3.44794 11.6448C3.7105 11.6662 4.05017 11.6667 4.54984 11.6667H8.28317C8.78284 11.6667 9.12251 11.6662 9.38507 11.6448C9.64081 11.6239 9.77159 11.586 9.86283 11.5395C10.0823 11.4276 10.2608 11.2492 10.3727 11.0296C10.4192 10.9384 10.457 10.8076 10.4779 10.5519C10.4994 10.2893 10.4998 9.94966 10.4998 9.44999V8.16666C10.4998 7.84449 10.761 7.58332 11.0832 7.58332C11.4053 7.58332 11.6665 7.84449 11.6665 8.16666V9.47409C11.6665 9.94365 11.6665 10.3312 11.6407 10.6469C11.6139 10.9748 11.5564 11.2762 11.4122 11.5593C11.1885 11.9983 10.8315 12.3553 10.3925 12.579C10.1094 12.7233 9.80796 12.7808 9.48007 12.8075C9.16438 12.8333 8.77684 12.8333 8.30728 12.8333H4.52573C4.05617 12.8333 3.66863 12.8333 3.35294 12.8075C3.02505 12.7808 2.72364 12.7233 2.44053 12.579C2.00148 12.3553 1.64453 11.9983 1.42082 11.5593C1.27657 11.2762 1.21907 10.9748 1.19228 10.6469C1.16649 10.3312 1.1665 9.94365 1.1665 9.47408V5.69257C1.1665 5.223 1.16649 4.83546 1.19228 4.51976C1.21907 4.19187 1.27657 3.89046 1.42082 3.60735C1.64453 3.1683 2.00148 2.81135 2.44053 2.58764C2.72364 2.44339 3.02505 2.38589 3.35294 2.3591C3.66864 2.33331 4.05618 2.33332 4.52575 2.33332Z" fill="white"/>
</svg>
