<svg width="136" height="38" viewBox="0 0 136 38" fill="none" xmlns="http://www.w3.org/2000/svg">
<path fill-rule="evenodd" clip-rule="evenodd" d="M14.5568 4.05324C14.1895 3.9777 13.8107 3.9777 13.4434 4.05324C13.0188 4.14056 12.6393 4.35311 12.3376 4.5221L12.2553 4.56804L2.03027 10.2486C2.002 10.2643 1.97287 10.2804 1.94302 10.2968C1.62365 10.4727 1.22209 10.6939 0.913717 11.0285C0.647103 11.3179 0.445336 11.6608 0.321911 12.0343C0.17915 12.4664 0.180821 12.9249 0.182149 13.2895C0.182273 13.3235 0.182394 13.3568 0.182394 13.3891V24.6051C0.182394 24.6374 0.182273 24.6707 0.182149 24.7048C0.180821 25.0694 0.17915 25.5278 0.321911 25.9599C0.445337 26.3334 0.647104 26.6764 0.913717 26.9657C1.22209 27.3003 1.62366 27.5215 1.94303 27.6974C1.97287 27.7138 2.002 27.7299 2.03027 27.7456L12.2554 33.4262L12.3376 33.4721C12.6393 33.6411 13.0188 33.8536 13.4434 33.941C13.8107 34.0165 14.1895 34.0165 14.5568 33.941C14.9814 33.8536 15.3609 33.6411 15.6626 33.4721L15.7448 33.4262L25.9699 27.7456C25.9824 27.7386 25.995 27.7316 26.0078 27.7245C26.024 27.7156 26.0404 27.7066 26.0571 27.6974C26.3765 27.5215 26.778 27.3003 27.0864 26.9657C27.353 26.6764 27.5548 26.3334 27.6782 25.9599C27.821 25.5278 27.8193 25.0694 27.818 24.7047C27.8179 24.6707 27.8177 24.6374 27.8177 24.6051V13.3891C27.8177 13.3568 27.8179 13.3235 27.818 13.2895C27.8193 12.9249 27.821 12.4664 27.6782 12.0343C27.5548 11.6608 27.353 11.3179 27.0864 11.0285C26.778 10.6939 26.3765 10.4727 26.0571 10.2968L26.056 10.2962C26.0265 10.28 25.9978 10.2641 25.9699 10.2486L15.7448 4.56803L15.6625 4.52209C15.3609 4.35311 14.9814 4.14056 14.5568 4.05324ZM13.5974 6.9838C13.8068 6.86747 13.9137 6.80869 13.9935 6.77023L14.0001 6.76707L14.0067 6.77023C14.0864 6.80869 14.1933 6.86747 14.4027 6.9838L23.5907 12.0882L14 17.4164L4.40941 12.0883L13.5974 6.9838ZM2.94593 14.4366L12.6183 19.8101L12.6183 30.4664L3.37236 25.3298C3.15134 25.207 3.0385 25.1437 2.95933 25.0932L2.95265 25.0889L2.95215 25.081C2.9465 24.9873 2.94593 24.8579 2.94593 24.6051V14.4366Z" fill="#2C2C2C"/>
<path d="M41.3354 28V10.5455H48.324C49.6081 10.5455 50.6792 10.7358 51.5371 11.1165C52.3951 11.4972 53.04 12.0256 53.4718 12.7017C53.9036 13.3722 54.1195 14.1449 54.1195 15.0199C54.1195 15.7017 53.9831 16.3011 53.7104 16.8182C53.4377 17.3295 53.0627 17.75 52.5854 18.0795C52.1138 18.4034 51.574 18.6335 50.9661 18.7699V18.9403C51.6309 18.9687 52.253 19.1562 52.8326 19.5028C53.4178 19.8494 53.8922 20.3352 54.2559 20.9602C54.6195 21.5795 54.8013 22.3182 54.8013 23.1761C54.8013 24.1023 54.5712 24.929 54.111 25.6562C53.6564 26.3778 52.9831 26.9489 52.0911 27.3693C51.199 27.7898 50.0996 28 48.7928 28H41.3354ZM45.0257 24.983H48.0343C49.0627 24.983 49.8127 24.7869 50.2843 24.3949C50.7559 23.9972 50.9917 23.4687 50.9917 22.8097C50.9917 22.3267 50.8752 21.9006 50.6422 21.5312C50.4093 21.1619 50.0769 20.8722 49.6451 20.6619C49.2189 20.4517 48.7104 20.3466 48.1195 20.3466H45.0257V24.983ZM45.0257 17.8494H47.7615C48.2672 17.8494 48.7161 17.7614 49.1081 17.5852C49.5059 17.4034 49.8184 17.1477 50.0456 16.8182C50.2786 16.4886 50.3951 16.0938 50.3951 15.6335C50.3951 15.0028 50.1706 14.4943 49.7218 14.108C49.2786 13.7216 48.6479 13.5284 47.8297 13.5284H45.0257V17.8494ZM57.1344 28V14.9091H60.7651V28H57.1344ZM58.9583 13.2216C58.4185 13.2216 57.9554 13.0426 57.5691 12.6847C57.1884 12.321 56.998 11.8864 56.998 11.3807C56.998 10.8807 57.1884 10.4517 57.5691 10.0938C57.9554 9.73011 58.4185 9.54829 58.9583 9.54829C59.498 9.54829 59.9583 9.73011 60.339 10.0938C60.7253 10.4517 60.9185 10.8807 60.9185 11.3807C60.9185 11.8864 60.7253 12.321 60.339 12.6847C59.9583 13.0426 59.498 13.2216 58.9583 13.2216ZM69.5712 33.1818C68.3951 33.1818 67.3865 33.0199 66.5456 32.696C65.7104 32.3778 65.0456 31.9432 64.5513 31.392C64.057 30.8409 63.736 30.2216 63.5882 29.5341L66.9462 29.0824C67.0485 29.3438 67.2104 29.5881 67.432 29.8153C67.6536 30.0426 67.9462 30.2244 68.3098 30.3608C68.6792 30.5028 69.128 30.5739 69.6564 30.5739C70.4462 30.5739 71.0968 30.3807 71.6081 29.9943C72.1252 29.6136 72.3837 28.9744 72.3837 28.0767V25.6818H72.2303C72.0712 26.0455 71.8326 26.3892 71.5144 26.7131C71.1962 27.0369 70.7871 27.3011 70.2871 27.5057C69.7871 27.7102 69.1905 27.8125 68.4973 27.8125C67.5144 27.8125 66.6195 27.5852 65.8127 27.1307C65.0115 26.6705 64.3723 25.9687 63.8951 25.0256C63.4235 24.0767 63.1877 22.8778 63.1877 21.429C63.1877 19.946 63.4292 18.7074 63.9121 17.7131C64.3951 16.7187 65.0371 15.9744 65.8382 15.4801C66.6451 14.9858 67.5286 14.7386 68.4888 14.7386C69.2218 14.7386 69.8354 14.8636 70.3297 15.1136C70.824 15.358 71.2218 15.6648 71.5229 16.0341C71.8297 16.3977 72.0655 16.7557 72.2303 17.108H72.3667V14.9091H75.9718V28.1278C75.9718 29.2415 75.699 30.1733 75.1536 30.9233C74.6081 31.6733 73.8525 32.2358 72.8865 32.6108C71.9263 32.9915 70.8212 33.1818 69.5712 33.1818ZM69.6479 25.0852C70.2331 25.0852 70.7275 24.9403 71.1309 24.6506C71.54 24.3551 71.8525 23.9347 72.0684 23.3892C72.29 22.8381 72.4007 22.179 72.4007 21.4119C72.4007 20.6449 72.2928 19.9801 72.0769 19.4176C71.861 18.8494 71.5485 18.4091 71.1394 18.0966C70.7303 17.7841 70.2331 17.6278 69.6479 17.6278C69.0513 17.6278 68.5485 17.7898 68.1394 18.1136C67.7303 18.4318 67.4206 18.875 67.2104 19.4432C67.0002 20.0114 66.8951 20.6676 66.8951 21.4119C66.8951 22.1676 67.0002 22.821 67.2104 23.3722C67.4263 23.9176 67.736 24.3409 68.1394 24.642C68.5485 24.9375 69.0513 25.0852 69.6479 25.0852ZM78.9292 28V10.5455H85.9178C87.2019 10.5455 88.2729 10.7358 89.1309 11.1165C89.9888 11.4972 90.6337 12.0256 91.0655 12.7017C91.4973 13.3722 91.7132 14.1449 91.7132 15.0199C91.7132 15.7017 91.5769 16.3011 91.3042 16.8182C91.0314 17.3295 90.6564 17.75 90.1792 18.0795C89.7076 18.4034 89.1678 18.6335 88.5598 18.7699V18.9403C89.2246 18.9687 89.8468 19.1562 90.4263 19.5028C91.0115 19.8494 91.486 20.3352 91.8496 20.9602C92.2132 21.5795 92.3951 22.3182 92.3951 23.1761C92.3951 24.1023 92.165 24.929 91.7047 25.6562C91.2502 26.3778 90.5769 26.9489 89.6848 27.3693C88.7928 27.7898 87.6934 28 86.3865 28H78.9292ZM82.6195 24.983H85.628C86.6564 24.983 87.4064 24.7869 87.878 24.3949C88.3496 23.9972 88.5854 23.4687 88.5854 22.8097C88.5854 22.3267 88.4689 21.9006 88.236 21.5312C88.003 21.1619 87.6706 20.8722 87.2388 20.6619C86.8127 20.4517 86.3042 20.3466 85.7132 20.3466H82.6195V24.983ZM82.6195 17.8494H85.3553C85.861 17.8494 86.3098 17.7614 86.7019 17.5852C87.0996 17.4034 87.4121 17.1477 87.6394 16.8182C87.8723 16.4886 87.9888 16.0938 87.9888 15.6335C87.9888 15.0028 87.7644 14.4943 87.3155 14.108C86.8723 13.7216 86.2417 13.5284 85.4235 13.5284H82.6195V17.8494ZM100.643 28.2557C99.3191 28.2557 98.1742 27.9744 97.2083 27.4119C96.248 26.8437 95.5066 26.054 94.9838 25.0426C94.4611 24.0256 94.1998 22.8466 94.1998 21.5057C94.1998 20.1534 94.4611 18.9716 94.9838 17.9602C95.5066 16.9432 96.248 16.1534 97.2083 15.5909C98.1742 15.0227 99.3191 14.7386 100.643 14.7386C101.967 14.7386 103.109 15.0227 104.069 15.5909C105.035 16.1534 105.779 16.9432 106.302 17.9602C106.825 18.9716 107.086 20.1534 107.086 21.5057C107.086 22.8466 106.825 24.0256 106.302 25.0426C105.779 26.054 105.035 26.8437 104.069 27.4119C103.109 27.9744 101.967 28.2557 100.643 28.2557ZM100.66 25.4432C101.262 25.4432 101.765 25.2727 102.169 24.9318C102.572 24.5852 102.876 24.1136 103.08 23.517C103.291 22.9205 103.396 22.2415 103.396 21.4801C103.396 20.7188 103.291 20.0398 103.08 19.4432C102.876 18.8466 102.572 18.375 102.169 18.0284C101.765 17.6818 101.262 17.5085 100.66 17.5085C100.052 17.5085 99.5407 17.6818 99.1259 18.0284C98.7168 18.375 98.4071 18.8466 98.1969 19.4432C97.9924 20.0398 97.8901 20.7188 97.8901 21.4801C97.8901 22.2415 97.9924 22.9205 98.1969 23.517C98.4071 24.1136 98.7168 24.5852 99.1259 24.9318C99.5407 25.2727 100.052 25.4432 100.66 25.4432ZM120.339 18.642L117.015 18.8466C116.958 18.5625 116.836 18.3068 116.649 18.0795C116.461 17.8466 116.214 17.6619 115.907 17.5256C115.606 17.3835 115.245 17.3125 114.825 17.3125C114.262 17.3125 113.788 17.4318 113.401 17.6705C113.015 17.9034 112.822 18.2159 112.822 18.608C112.822 18.9205 112.947 19.1847 113.197 19.4006C113.447 19.6165 113.876 19.7898 114.484 19.9205L116.853 20.3977C118.126 20.6591 119.075 21.0795 119.7 21.6591C120.325 22.2386 120.637 23 120.637 23.9432C120.637 24.8011 120.384 25.554 119.879 26.2017C119.379 26.8494 118.691 27.3551 117.816 27.7188C116.947 28.0767 115.944 28.2557 114.808 28.2557C113.075 28.2557 111.694 27.8949 110.666 27.1733C109.643 26.446 109.044 25.4574 108.867 24.2074L112.438 24.0199C112.546 24.5483 112.808 24.9517 113.222 25.2301C113.637 25.5028 114.169 25.6392 114.816 25.6392C115.453 25.6392 115.964 25.517 116.35 25.2727C116.742 25.0227 116.941 24.7017 116.947 24.3097C116.941 23.9801 116.802 23.7102 116.529 23.5C116.257 23.2841 115.836 23.1193 115.268 23.0057L113.001 22.554C111.722 22.2983 110.771 21.8551 110.146 21.2244C109.526 20.5937 109.217 19.7898 109.217 18.8125C109.217 17.9716 109.444 17.2472 109.899 16.6392C110.359 16.0312 111.004 15.5625 111.833 15.233C112.669 14.9034 113.646 14.7386 114.765 14.7386C116.419 14.7386 117.72 15.0881 118.669 15.7869C119.623 16.4858 120.18 17.4375 120.339 18.642ZM133.816 18.642L130.492 18.8466C130.435 18.5625 130.313 18.3068 130.125 18.0795C129.938 17.8466 129.691 17.6619 129.384 17.5256C129.083 17.3835 128.722 17.3125 128.301 17.3125C127.739 17.3125 127.264 17.4318 126.878 17.6705C126.492 17.9034 126.298 18.2159 126.298 18.608C126.298 18.9205 126.423 19.1847 126.673 19.4006C126.923 19.6165 127.352 19.7898 127.96 19.9205L130.33 20.3977C131.602 20.6591 132.551 21.0795 133.176 21.6591C133.801 22.2386 134.114 23 134.114 23.9432C134.114 24.8011 133.861 25.554 133.355 26.2017C132.855 26.8494 132.168 27.3551 131.293 27.7188C130.423 28.0767 129.421 28.2557 128.284 28.2557C126.551 28.2557 125.171 27.8949 124.142 27.1733C123.119 26.446 122.52 25.4574 122.344 24.2074L125.915 24.0199C126.023 24.5483 126.284 24.9517 126.699 25.2301C127.114 25.5028 127.645 25.6392 128.293 25.6392C128.929 25.6392 129.441 25.517 129.827 25.2727C130.219 25.0227 130.418 24.7017 130.423 24.3097C130.418 23.9801 130.279 23.7102 130.006 23.5C129.733 23.2841 129.313 23.1193 128.744 23.0057L126.477 22.554C125.199 22.2983 124.247 21.8551 123.622 21.2244C123.003 20.5937 122.693 19.7898 122.693 18.8125C122.693 17.9716 122.921 17.2472 123.375 16.6392C123.835 16.0312 124.48 15.5625 125.31 15.233C126.145 14.9034 127.122 14.7386 128.242 14.7386C129.895 14.7386 131.196 15.0881 132.145 15.7869C133.1 16.4858 133.656 17.4375 133.816 18.642Z" fill="#2C2C2C"/>
</svg>
